<svg width="188" height="29" viewBox="0 0 188 29" fill="none" xmlns="http://www.w3.org/2000/svg">
<g filter="url(#filter0_d_1_198)">
<path d="M0.93775 4.16C1.23642 3.56267 1.70575 3.104 2.34575 2.784C3.00708 2.44267 3.78575 2.272 4.68175 2.272C6.08975 2.272 7.20975 2.784 8.04175 3.808C8.89508 4.81067 9.32175 6.42133 9.32175 8.64V20.064L16.6498 2.912H20.4258L21.2898 19.104L21.1938 20.032L28.8098 2.912H33.1938L22.9538 24H16.1378L15.4978 14.272L11.2738 24H3.56175L2.60175 8.64C2.53775 7.488 2.34575 6.53867 2.02575 5.792C1.72708 5.024 1.36442 4.48 0.93775 4.16ZM47.9213 20.448C47.9213 21.3867 48.4013 21.9947 49.3612 22.272C49.1266 23.0613 48.5506 23.6693 47.6333 24.096C46.8653 24.4587 46.0546 24.64 45.2013 24.64C44.3693 24.64 43.7293 24.5227 43.2813 24.288C42.8546 24.0747 42.5239 23.7867 42.2893 23.424C41.9053 22.8693 41.7133 22.0693 41.7133 21.024C41.7133 20.4053 41.8839 19.2427 42.2253 17.536L42.6733 15.104C43.0359 13.248 43.2173 11.9787 43.2173 11.296C43.2173 10.1013 42.8866 9.504 42.2253 9.504C41.3933 9.504 40.7106 10.112 40.1773 11.328C39.9639 11.7973 39.7826 12.384 39.6333 13.088L37.4573 24L31.0252 24.64L35.5373 1.6L41.9693 0.959999L41.7133 2.24C41.1159 5.52533 40.5613 7.72267 40.0493 8.832C41.2439 7.63733 42.9399 7.04 45.1373 7.04C47.4626 7.04 48.8386 7.808 49.2653 9.344C49.4146 9.83467 49.4893 10.2933 49.4893 10.72C49.4893 11.1467 49.4679 11.5307 49.4253 11.872C49.4039 12.192 49.3399 12.6507 49.2333 13.248L48.8173 15.552L48.0813 19.168C47.9746 19.6587 47.9213 20.0853 47.9213 20.448ZM64.9103 18.592C65.4436 18.9547 65.7103 19.5413 65.7103 20.352C65.7103 21.1413 65.5076 21.792 65.1023 22.304C64.6969 22.816 64.1636 23.2427 63.5023 23.584C62.1369 24.288 60.7183 24.64 59.2463 24.64C57.7743 24.64 56.6009 24.48 55.7263 24.16C54.8729 23.84 54.1583 23.3813 53.5823 22.784C52.4516 21.6533 51.8863 20.0533 51.8863 17.984C51.8863 14.7627 52.7609 12.1707 54.5103 10.208C56.3876 8.096 58.9583 7.04 62.2223 7.04C64.2489 7.04 65.7636 7.46667 66.7663 8.32C67.5129 8.96 67.8863 9.80267 67.8863 10.848C67.8863 14.6027 64.6436 16.48 58.1583 16.48C58.0729 17.0347 58.0303 17.5467 58.0303 18.016C58.0303 18.9973 58.2436 19.68 58.6703 20.064C59.1183 20.4267 59.7476 20.608 60.5583 20.608C61.3689 20.608 62.2009 20.4267 63.0543 20.064C63.9289 19.68 64.5476 19.1893 64.9103 18.592ZM58.3823 15.104C59.8969 15.104 61.0916 14.6347 61.9663 13.696C62.8409 12.8 63.2783 11.6373 63.2783 10.208C63.2783 9.71733 63.1823 9.344 62.9903 9.088C62.8196 8.81067 62.5529 8.672 62.1903 8.672C61.8276 8.672 61.4863 8.74667 61.1663 8.896C60.8676 9.024 60.5583 9.32267 60.2383 9.792C59.4489 10.8587 58.8303 12.6293 58.3823 15.104ZM78.9975 15.008C79.7655 13.6427 80.1495 12.2667 80.1495 10.88C80.1495 9.96267 79.8188 9.504 79.1575 9.504C78.6455 9.504 78.1228 9.94133 77.5895 10.816C77.0348 11.6907 76.6722 12.6933 76.5015 13.824L74.8375 24L68.2135 24.64L71.4775 7.68L76.7575 7.04L76.1815 10.272C77.2268 8.11733 78.9228 7.04 81.2695 7.04C82.5068 7.04 83.4562 7.36 84.1175 8C84.8002 8.64 85.1415 9.62133 85.1415 10.944C85.1415 12.2453 84.7042 13.312 83.8295 14.144C82.9762 14.976 81.8135 15.392 80.3415 15.392C79.7015 15.392 79.2535 15.264 78.9975 15.008ZM98.629 18.592C99.1623 18.9547 99.429 19.5413 99.429 20.352C99.429 21.1413 99.2263 21.792 98.821 22.304C98.4157 22.816 97.8823 23.2427 97.221 23.584C95.8557 24.288 94.437 24.64 92.965 24.64C91.493 24.64 90.3197 24.48 89.445 24.16C88.5917 23.84 87.877 23.3813 87.301 22.784C86.1703 21.6533 85.605 20.0533 85.605 17.984C85.605 14.7627 86.4797 12.1707 88.229 10.208C90.1063 8.096 92.677 7.04 95.941 7.04C97.9677 7.04 99.4823 7.46667 100.485 8.32C101.232 8.96 101.605 9.80267 101.605 10.848C101.605 14.6027 98.3623 16.48 91.877 16.48C91.7917 17.0347 91.749 17.5467 91.749 18.016C91.749 18.9973 91.9623 19.68 92.389 20.064C92.837 20.4267 93.4663 20.608 94.277 20.608C95.0877 20.608 95.9197 20.4267 96.773 20.064C97.6477 19.68 98.2663 19.1893 98.629 18.592ZM92.101 15.104C93.6157 15.104 94.8103 14.6347 95.685 13.696C96.5597 12.8 96.997 11.6373 96.997 10.208C96.997 9.71733 96.901 9.344 96.709 9.088C96.5383 8.81067 96.2717 8.672 95.909 8.672C95.5463 8.672 95.205 8.74667 94.885 8.896C94.5863 9.024 94.277 9.32267 93.957 9.792C93.1677 10.8587 92.549 12.6293 92.101 15.104ZM108.942 24L113.006 2.88H120.046L115.918 24H108.942ZM121.275 20.8C121.275 20.224 121.424 19.2107 121.723 17.76L123.419 9.12H121.531L121.659 8.16C124.219 7.392 126.736 6.06933 129.211 4.192H130.747L129.979 7.68H132.475L132.187 9.12H129.723L128.091 17.76C127.813 19.0827 127.675 19.968 127.675 20.416C127.675 21.44 128.123 22.0587 129.019 22.272C128.805 22.9973 128.315 23.5733 127.547 24C126.779 24.4267 125.851 24.64 124.763 24.64C123.675 24.64 122.821 24.2987 122.203 23.616C121.584 22.9333 121.275 21.9947 121.275 20.8ZM133.349 9.184C134.992 7.41333 135.813 5.41867 135.813 3.2C135.813 2.51733 135.696 1.856 135.461 1.216C135.717 1.04533 136.101 0.906666 136.613 0.799999C137.125 0.672 137.573 0.608 137.957 0.608C138.917 0.608 139.664 0.874666 140.197 1.408C140.752 1.94133 141.029 2.66667 141.029 3.584C141.029 4.48 140.869 5.26933 140.549 5.952C140.229 6.61333 139.781 7.2 139.205 7.712C137.989 8.82133 136.496 9.376 134.725 9.376C134.384 9.376 133.925 9.312 133.349 9.184ZM149.893 12.768C150.192 11.9787 150.341 11.2427 150.341 10.56C150.341 9.30133 149.829 8.672 148.805 8.672C148.272 8.672 147.781 8.91733 147.333 9.408C146.907 9.87733 146.693 10.4107 146.693 11.008C146.693 11.4347 146.864 11.8187 147.205 12.16C147.696 12.6293 148.571 13.248 149.829 14.016C151.088 14.784 151.952 15.488 152.421 16.128C152.912 16.7467 153.157 17.4933 153.157 18.368C153.157 19.2213 152.944 20.0427 152.517 20.832C152.112 21.6213 151.536 22.2933 150.789 22.848C149.189 24.0427 147.109 24.64 144.549 24.64C143.163 24.64 141.936 24.2773 140.869 23.552C139.803 22.848 139.269 22.08 139.269 21.248C139.269 20.416 139.568 19.7547 140.165 19.264C140.784 18.7733 141.541 18.528 142.437 18.528C143.333 18.528 144.059 18.6987 144.613 19.04C144.336 19.744 144.197 20.3307 144.197 20.8C144.197 22.208 144.795 22.912 145.989 22.912C146.501 22.912 146.928 22.752 147.269 22.432C147.611 22.112 147.781 21.6747 147.781 21.12C147.781 20.032 146.864 18.912 145.029 17.76C143.536 16.7787 142.619 16.096 142.277 15.712C141.701 15.0293 141.413 14.2613 141.413 13.408C141.413 12.5547 141.616 11.7227 142.021 10.912C142.427 10.1013 143.003 9.408 143.749 8.832C145.307 7.63733 147.44 7.04 150.149 7.04C151.536 7.04 152.635 7.31733 153.445 7.872C154.277 8.42667 154.693 9.17333 154.693 10.112C154.693 11.0507 154.405 11.7867 153.829 12.32C153.275 12.8533 152.485 13.12 151.461 13.12C150.757 13.12 150.235 13.0027 149.893 12.768ZM178.994 18.912C178.994 19.7227 179.271 20.128 179.826 20.128C180.679 20.128 181.436 19.5093 182.098 18.272C182.716 17.056 183.026 15.7227 183.026 14.272C183.026 11.776 182.428 9.952 181.234 8.8C180.039 7.62667 178.194 7.04 175.698 7.04C174.418 7.04 173.191 7.31733 172.018 7.872C170.844 8.42667 169.81 9.20533 168.914 10.208C168.018 11.1893 167.303 12.3627 166.77 13.728C166.236 15.0933 165.97 16.576 165.97 18.176C165.97 20.5013 166.652 22.1653 168.018 23.168C169.383 24.1493 171.356 24.64 173.938 24.64C174.983 24.64 175.996 24.4693 176.978 24.128C177.959 23.808 178.716 23.456 179.25 23.072C179.356 23.136 179.452 23.2747 179.538 23.488C179.644 23.68 179.698 23.8507 179.698 24C179.698 24.8107 179.303 25.44 178.514 25.888C177.02 26.72 175.335 27.136 173.458 27.136C171.58 27.136 169.98 26.9653 168.658 26.624C167.356 26.2827 166.247 25.7707 165.33 25.088C163.388 23.6587 162.418 21.6533 162.418 19.072C162.418 17.0667 162.812 15.2 163.602 13.472C164.391 11.7227 165.447 10.208 166.77 8.928C168.092 7.62667 169.607 6.61333 171.314 5.888C173.042 5.14133 174.716 4.768 176.338 4.768C177.959 4.768 179.356 4.96 180.53 5.344C181.703 5.70667 182.716 6.25067 183.57 6.976C185.426 8.49067 186.354 10.6133 186.354 13.344C186.354 15.8613 185.671 17.9413 184.306 19.584C183.026 21.12 181.426 21.888 179.506 21.888C178.546 21.888 177.81 21.728 177.298 21.408C176.786 21.088 176.455 20.512 176.306 19.68C175.964 20.5333 175.484 21.12 174.866 21.44C174.268 21.7387 173.543 21.888 172.69 21.888C169.959 21.888 168.594 20.2773 168.594 17.056C168.594 15.0293 169.191 13.3013 170.385 11.872C171.602 10.4 173.127 9.664 174.962 9.664C175.666 9.664 176.359 9.80267 177.042 10.08L180.498 9.664L179.026 18.304C179.004 18.4107 178.994 18.5173 178.994 18.624V18.912ZM176.306 11.168C176.05 10.9547 175.73 10.848 175.346 10.848C174.962 10.848 174.588 11.0613 174.226 11.488C173.884 11.9147 173.586 12.5013 173.33 13.248C172.775 14.8267 172.498 16.7253 172.498 18.944C172.498 19.3493 172.583 19.6587 172.754 19.872C172.924 20.0853 173.095 20.192 173.266 20.192C173.692 20.192 174.066 19.9787 174.386 19.552C174.706 19.1253 174.93 18.5707 175.058 17.888L176.306 11.168Z" fill="#F56B9A"/>
</g>
<defs>
<filter id="filter0_d_1_198" x="0.937744" y="0.608002" width="186.416" height="27.528" filterUnits="userSpaceOnUse" color-interpolation-filters="sRGB">
<feFlood flood-opacity="0" result="BackgroundImageFix"/>
<feColorMatrix in="SourceAlpha" type="matrix" values="0 0 0 0 0 0 0 0 0 0 0 0 0 0 0 0 0 0 127 0" result="hardAlpha"/>
<feOffset dx="1" dy="1"/>
<feColorMatrix type="matrix" values="0 0 0 0 0 0 0 0 0 0 0 0 0 0 0 0 0 0 1 0"/>
<feBlend mode="normal" in2="BackgroundImageFix" result="effect1_dropShadow_1_198"/>
<feBlend mode="normal" in="SourceGraphic" in2="effect1_dropShadow_1_198" result="shape"/>
</filter>
</defs>
</svg>
